<?xml version="1.0" standalone="no"?>
<!DOCTYPE svg PUBLIC "-//W3C//DTD SVG 20010904//EN"
 "http://www.w3.org/TR/2001/REC-SVG-20010904/DTD/svg10.dtd">
<svg version="1.0" xmlns="http://www.w3.org/2000/svg"
 width="1024.000000pt" height="768.000000pt" viewBox="0 0 1024.000000 768.000000"
 preserveAspectRatio="xMidYMid meet">

<g transform="translate(0.000000,768.000000) scale(0.100000,-0.100000)"
fill="#ffffff" stroke="none">
<path d="M4805 7675 c-11 -2 -69 -9 -130 -15 -330 -35 -738 -142 -1049 -275
-1490 -637 -2423 -2115 -2345 -3719 42 -867 362 -1669 928 -2326 566 -657
1357 -1112 2206 -1269 264 -49 346 -55 695 -56 341 0 383 3 645 46 884 145
1722 628 2300 1323 495 595 777 1254 877 2046 20 162 17 720 -5 880 -90 645
-289 1173 -633 1682 -567 838 -1436 1419 -2420 1617 -276 55 -362 63 -719 66
-181 2 -339 2 -350 0z m770 -199 c271 -38 495 -92 740 -177 1161 -401 2053
-1379 2349 -2574 34 -140 64 -305 88 -485 20 -153 17 -665 -6 -830 -65 -489
-216 -951 -437 -1343 -77 -137 -246 -387 -345 -512 -113 -141 -418 -446 -559
-559 -132 -105 -381 -272 -523 -351 -695 -386 -1515 -533 -2312 -414 -1521
226 -2745 1396 -3044 2909 -52 262 -60 362 -60 710 0 346 7 430 60 701 208
1073 890 1993 1869 2522 435 235 889 368 1440 421 100 10 635 -4 740 -18z"/>
<path d="M6120 5625 l-75 -75 800 -800 800 -800 -2633 0 -2633 0 3 -102 3
-103 2630 -3 2630 -2 -798 -798 -797 -797 75 -75 75 -75 925 925 925 925 -928
928 -927 927 -75 -75z"/>
</g>
</svg>
